<svg width="499" height="500" viewBox="0 0 499 500" fill="none" xmlns="http://www.w3.org/2000/svg">
<path d="M218.707 240.115C238.016 229.174 261.637 229.106 281.007 239.938L301.66 251.488C305.973 253.9 310.462 255.944 315.077 257.611C318.133 293.247 343.195 321.119 373.864 321.335C403.212 321.541 427.783 296.354 432.963 263H466.672L403.805 325.867C398.533 331.139 398.533 339.687 403.805 344.959C409.077 350.231 417.625 350.231 422.896 344.959L498.526 269.328C488.66 398.367 380.831 500 249.264 500C117.696 500 9.86622 398.367 0 269.327L75.6309 344.959C80.903 350.231 89.4507 350.231 94.7227 344.959C99.9946 339.687 99.9944 331.139 94.7227 325.867L31.8555 263H65.0098C69.999 296.018 94.056 321.13 123.161 321.335C153.834 321.551 179.288 294.028 182.841 258.434C188.455 256.58 193.897 254.175 199.081 251.237L218.707 240.115ZM290.764 279C283.032 279 276.764 285.268 276.764 293C276.764 305.427 268.11 316 251.264 316C232.324 316 221.264 303.528 221.264 293C221.264 285.268 214.995 279 207.264 279C199.532 279 193.264 285.268 193.264 293C193.264 323.341 221.602 344 251.264 344C283.018 344 304.764 321.441 304.764 293C304.764 285.268 298.495 279 290.764 279ZM249.264 0C380.461 0.000207323 488.053 101.062 498.44 229.585L422.896 154.041C417.624 148.769 409.077 148.769 403.805 154.041C398.533 159.313 398.533 167.861 403.805 173.133L466.672 236H432.835C427.464 203.556 403.631 179.028 374.868 178.825C347.883 178.635 324.935 199.915 317.389 229.272C316.53 228.842 315.679 228.393 314.838 227.923L294.185 216.373C266.578 200.935 232.915 201.031 205.396 216.625L185.77 227.746C184.198 228.637 182.591 229.456 180.957 230.206C173.86 200.679 151.189 179.016 124.165 178.825C95.1587 178.621 70.8184 203.223 65.2549 236H31.8555L94.7227 173.133C99.9946 167.861 99.9944 159.313 94.7227 154.041C89.4506 148.769 80.9029 148.769 75.6309 154.041L0.0849609 229.586C10.4715 101.063 118.065 0 249.264 0Z" fill="#D9D9D9"/>
</svg>
